<svg width="14" height="8" viewBox="0 0 14 8" fill="none" xmlns="http://www.w3.org/2000/svg">
<path d="M2.15484 7.13C1.52151 7.13 1.05151 7.03 0.744844 6.83C0.444844 6.62333 0.294844 6.24 0.294844 5.68C0.294844 5.56667 0.30151 5.43 0.314844 5.27C0.334844 5.11 0.36151 4.91667 0.394844 4.69C0.448177 4.36333 0.488177 4.07333 0.514844 3.82C0.54151 3.56 0.554844 3.27667 0.554844 2.97C0.554844 2.77 0.548177 2.57667 0.534844 2.39C0.528177 2.20333 0.51151 2.02667 0.484844 1.86C0.384844 1.88 0.318177 1.89 0.284844 1.89C0.23151 1.89 0.194844 1.88 0.174844 1.86C0.154844 1.83333 0.144844 1.78667 0.144844 1.72C0.144844 1.58 0.16151 1.44333 0.194844 1.31C0.228177 1.17 0.274844 1.05667 0.334844 0.97C0.448177 0.81 0.62151 0.716666 0.854844 0.69C1.03484 0.67 1.25484 0.65 1.51484 0.63C1.78151 0.61 2.05151 0.596666 2.32484 0.59C2.60484 0.576667 2.85484 0.57 3.07484 0.57C3.68818 0.57 4.05151 0.583333 4.16484 0.609999C4.33818 0.636666 4.42484 0.73 4.42484 0.89C4.42484 1.09 4.35484 1.27333 4.21484 1.44C4.14151 1.54 4.06818 1.61333 3.99484 1.66C3.92151 1.7 3.81818 1.71667 3.68484 1.71C3.39151 1.69 3.13484 1.67667 2.91484 1.67C2.69484 1.66333 2.54151 1.66 2.45484 1.66C2.30151 1.66 2.14151 1.66333 1.97484 1.67C1.81484 1.67667 1.65151 1.68667 1.48484 1.7C1.48484 1.93333 1.47484 2.18333 1.45484 2.45C1.43484 2.71667 1.40818 2.99667 1.37484 3.29C1.68151 3.27 2.02818 3.25667 2.41484 3.25C2.80151 3.23667 3.14484 3.23 3.44484 3.23C3.57818 3.23 3.66818 3.24333 3.71484 3.27C3.76818 3.29667 3.79484 3.36667 3.79484 3.48C3.79484 3.58667 3.76484 3.70667 3.70484 3.84C3.65151 3.96667 3.57818 4.07667 3.48484 4.17C3.44484 4.21 3.40151 4.24333 3.35484 4.27C3.30818 4.29 3.24484 4.29667 3.16484 4.29C2.87818 4.27667 2.55151 4.26667 2.18484 4.26C1.82484 4.25333 1.50818 4.25333 1.23484 4.26C1.20818 4.41333 1.18818 4.55333 1.17484 4.68C1.16151 4.80667 1.15484 4.92 1.15484 5.02C1.15484 5.38667 1.24818 5.64333 1.43484 5.79C1.62151 5.93667 1.92818 6.01 2.35484 6.01C2.61484 6.01 2.86484 5.98667 3.10484 5.94C3.35151 5.89333 3.60151 5.80667 3.85484 5.68C3.94818 5.62667 4.01818 5.6 4.06484 5.6C4.13818 5.6 4.20818 5.65333 4.27484 5.76C4.34818 5.86 4.38484 5.97 4.38484 6.09C4.38484 6.23667 4.32818 6.37667 4.21484 6.51C4.10818 6.63667 3.96484 6.74667 3.78484 6.84C3.57818 6.93333 3.33151 7.00333 3.04484 7.05C2.75818 7.10333 2.46151 7.13 2.15484 7.13ZM6.89813 7.13C6.44479 7.13 6.09479 7.08 5.84813 6.98C5.60146 6.88 5.43146 6.74 5.33813 6.56C5.24479 6.38 5.19813 6.16667 5.19813 5.92C5.19813 5.8 5.20813 5.66667 5.22813 5.52C5.24813 5.36667 5.27146 5.19333 5.29813 5C5.41813 4.26667 5.47813 3.61667 5.47813 3.05C5.47813 2.67667 5.46146 2.36 5.42813 2.1C5.40146 1.83333 5.31479 1.58 5.16813 1.34C5.14146 1.3 5.11813 1.26 5.09813 1.22C5.07813 1.17333 5.06813 1.13667 5.06813 1.11C5.06813 1.03 5.11479 0.946667 5.20813 0.86C5.30146 0.773333 5.41479 0.7 5.54813 0.64C5.68146 0.58 5.80813 0.55 5.92813 0.55C6.15479 0.55 6.29479 0.64 6.34813 0.82C6.40813 1 6.43813 1.25667 6.43813 1.59C6.43813 1.71667 6.42479 1.92 6.39813 2.2C6.37146 2.47333 6.33146 2.82333 6.27813 3.25C6.22479 3.66333 6.18479 4.02 6.15813 4.32C6.13146 4.62 6.11813 4.86 6.11813 5.04C6.11813 5.30667 6.14813 5.51 6.20813 5.65C6.27479 5.78333 6.38146 5.87667 6.52813 5.93C6.67479 5.98333 6.88146 6.01 7.14812 6.01C7.43479 6.01 7.70813 5.98667 7.96813 5.94C8.22813 5.88667 8.48146 5.80667 8.72813 5.7C8.76146 5.68667 8.79146 5.67667 8.81813 5.67C8.84479 5.66333 8.86813 5.66 8.88813 5.66C8.94813 5.66 9.00479 5.69667 9.05813 5.77C9.11146 5.84333 9.13813 5.94667 9.13813 6.08C9.13813 6.37333 8.97813 6.60333 8.65813 6.77C8.23146 7.01 7.64479 7.13 6.89813 7.13ZM11.6763 7.13C11.043 7.13 10.573 7.03 10.2663 6.83C9.96633 6.62333 9.81633 6.24 9.81633 5.68C9.81633 5.56667 9.82299 5.43 9.83633 5.27C9.85633 5.11 9.88299 4.91667 9.91633 4.69C9.96966 4.36333 10.0097 4.07333 10.0363 3.82C10.063 3.56 10.0763 3.27667 10.0763 2.97C10.0763 2.77 10.0697 2.57667 10.0563 2.39C10.0497 2.20333 10.033 2.02667 10.0063 1.86C9.90633 1.88 9.83966 1.89 9.80633 1.89C9.75299 1.89 9.71633 1.88 9.69633 1.86C9.67633 1.83333 9.66633 1.78667 9.66633 1.72C9.66633 1.58 9.68299 1.44333 9.71633 1.31C9.74966 1.17 9.79633 1.05667 9.85633 0.97C9.96966 0.81 10.143 0.716666 10.3763 0.69C10.5563 0.67 10.7763 0.65 11.0363 0.63C11.303 0.61 11.573 0.596666 11.8463 0.59C12.1263 0.576667 12.3763 0.57 12.5963 0.57C13.2097 0.57 13.573 0.583333 13.6863 0.609999C13.8597 0.636666 13.9463 0.73 13.9463 0.89C13.9463 1.09 13.8763 1.27333 13.7363 1.44C13.663 1.54 13.5897 1.61333 13.5163 1.66C13.443 1.7 13.3397 1.71667 13.2063 1.71C12.913 1.69 12.6563 1.67667 12.4363 1.67C12.2163 1.66333 12.063 1.66 11.9763 1.66C11.823 1.66 11.663 1.66333 11.4963 1.67C11.3363 1.67667 11.173 1.68667 11.0063 1.7C11.0063 1.93333 10.9963 2.18333 10.9763 2.45C10.9563 2.71667 10.9297 2.99667 10.8963 3.29C11.203 3.27 11.5497 3.25667 11.9363 3.25C12.323 3.23667 12.6663 3.23 12.9663 3.23C13.0997 3.23 13.1897 3.24333 13.2363 3.27C13.2897 3.29667 13.3163 3.36667 13.3163 3.48C13.3163 3.58667 13.2863 3.70667 13.2263 3.84C13.173 3.96667 13.0997 4.07667 13.0063 4.17C12.9663 4.21 12.923 4.24333 12.8763 4.27C12.8297 4.29 12.7663 4.29667 12.6863 4.29C12.3997 4.27667 12.073 4.26667 11.7063 4.26C11.3463 4.25333 11.0297 4.25333 10.7563 4.26C10.7297 4.41333 10.7097 4.55333 10.6963 4.68C10.683 4.80667 10.6763 4.92 10.6763 5.02C10.6763 5.38667 10.7697 5.64333 10.9563 5.79C11.143 5.93667 11.4497 6.01 11.8763 6.01C12.1363 6.01 12.3863 5.98667 12.6263 5.94C12.873 5.89333 13.123 5.80667 13.3763 5.68C13.4697 5.62667 13.5397 5.6 13.5863 5.6C13.6597 5.6 13.7297 5.65333 13.7963 5.76C13.8697 5.86 13.9063 5.97 13.9063 6.09C13.9063 6.23667 13.8497 6.37667 13.7363 6.51C13.6297 6.63667 13.4863 6.74667 13.3063 6.84C13.0997 6.93333 12.853 7.00333 12.5663 7.05C12.2797 7.10333 11.983 7.13 11.6763 7.13Z" fill="white"/>
</svg>
