<svg width="20" height="16" viewBox="0 0 80 50" fill="none" xmlns="http://www.w3.org/2000/svg">
<g clip-path="url(#clip0_724_2302)">
<path d="M75.2502 0.614697C75.3012 0.61553 75.3522 0.616364 75.4052 0.617223C76.0252 0.627444 76.6452 0.638772 77.2652 0.651337V0.781546C77.2979 0.780524 77.3307 0.779502 77.3642 0.778447C77.5147 0.774352 77.6647 0.771806 77.8152 0.769332C77.8922 0.766878 77.8922 0.766878 77.9712 0.764371C78.2902 0.7604 78.5262 0.803499 78.8162 0.976611V1.10682H79.1662V1.23703C79.2043 1.25448 79.2427 1.27192 79.2817 1.28989C79.4717 1.39927 79.5417 1.49041 79.6257 1.73781L79.6663 1.8882H79.7663C79.9003 2.23716 79.9323 2.47479 79.9163 2.86476H80.0163V3.12518H79.9163C79.9174 3.16912 79.9186 3.21307 79.9198 3.25864C79.9207 3.31672 79.9216 3.37453 79.9225 3.43442C79.9237 3.49185 79.9248 3.54901 79.926 3.60825C79.9156 3.78664 79.88 3.88039 79.816 4.03664C79.7938 4.17531 79.7938 4.17531 79.7848 4.31333L79.766 4.55747H79.666L79.616 5.0132H79.516V5.46893H79.416L79.4254 5.61932C79.416 5.79445 79.416 5.79445 79.3474 5.91229C79.2664 5.98976 79.2664 5.98976 79.1664 5.98976V6.25018H79.0664V6.44549H78.9664L78.9164 6.70591H78.8164V6.90122H78.6664V7.09653H78.5664V7.35695H78.4164V7.48716H78.3164V7.68247H78.2164V7.81268C78.1474 7.91815 78.1474 7.91815 78.0664 8.00799H77.9664V8.1382H77.8664L77.8164 8.33351H77.7164V8.46372H77.5664V8.59393H77.3664V8.78924H77.0164V8.91945C76.8924 8.94386 76.7689 8.96665 76.6444 8.98846C76.611 8.99523 76.5774 9.002 76.5429 9.0089C76.2504 9.0589 75.9679 9.0395 75.6729 9.01329C75.1784 8.96987 74.6829 8.96101 74.1879 8.94754C74.0884 8.94472 73.9884 8.94187 73.8889 8.93901C73.6479 8.93217 73.4069 8.92553 73.1639 8.91902V8.78881C73.1337 8.78896 73.1034 8.7891 73.0724 8.78925C72.7579 8.79069 72.4424 8.79167 72.1274 8.79239C72.0099 8.79272 71.8924 8.79316 71.7749 8.79372C71.6059 8.79451 71.4374 8.79488 71.2699 8.79517C71.2174 8.7955 71.1649 8.79584 71.1104 8.79618C71.0614 8.79619 71.0124 8.79619 70.9619 8.7962C70.9188 8.79634 70.8759 8.79649 70.8314 8.79664C70.7184 8.78908 70.6229 8.76252 70.5144 8.72372C70.3209 8.70211 70.1269 8.69592 69.9344 8.68713C69.8754 8.68442 69.8164 8.6817 69.7554 8.67893C68.7604 8.63778 67.7654 8.63531 66.7704 8.68713C66.6969 8.69095 66.6969 8.69095 66.6219 8.69488C66.3954 8.70367 66.3954 8.70367 66.1734 8.75673C66.0479 8.79358 65.9354 8.7967 65.8074 8.79631C65.7564 8.79631 65.7054 8.7963 65.6529 8.7963C65.5984 8.79596 65.5434 8.79563 65.4869 8.79528C65.4304 8.79519 65.3744 8.7951 65.3164 8.795C65.1364 8.79464 64.9569 8.79382 64.7764 8.79299C64.6544 8.79266 64.5324 8.79237 64.4104 8.7921C64.1114 8.79138 63.8104 8.79029 63.5154 8.78892V8.91913L62.9154 8.98423C62.9166 9.09556 62.9177 9.20689 62.9189 9.32147C62.9251 10.1874 62.9106 11.0402 62.8544 11.9061C62.8145 12.5311 62.7954 13.1561 62.7824 13.7811C62.7809 13.8514 62.7793 13.9211 62.7776 13.9933C62.7758 14.0864 62.7758 14.0864 62.774 14.1815C62.7653 14.3221 62.7653 14.3221 62.7155 14.3872C62.7076 14.5174 62.703 14.6476 62.6997 14.7779C62.6976 14.8566 62.6955 14.9361 62.6934 15.0174C62.6914 15.1008 62.6894 15.1841 62.6874 15.27C62.6842 15.395 62.6842 15.395 62.6809 15.5233C62.6756 15.7303 62.6704 15.938 62.6655 16.145H62.5655C62.5661 16.1824 62.5667 16.2199 62.5673 16.2583C62.5707 16.6802 62.5596 17.0982 62.5436 17.5213C62.5417 17.5769 62.5397 17.6327 62.5377 17.69C62.5215 18.0917 62.5215 18.0917 62.4657 18.1646C62.4578 18.2661 62.4531 18.3683 62.4499 18.4699C62.4478 18.5314 62.4457 18.593 62.4435 18.6561C62.4416 18.7208 62.4396 18.7857 62.4376 18.8521C62.4343 18.9497 62.4343 18.9497 62.431 19.0487C62.4257 19.2095 62.4206 19.3703 62.4157 19.5318H62.3157C62.3163 19.6086 62.3168 19.6854 62.3174 19.7648C62.3179 19.8664 62.3184 19.9673 62.3188 20.0689C62.3192 20.1195 62.3196 20.1698 62.3201 20.2225C62.3202 20.2716 62.3204 20.3208 62.3206 20.3716C62.3208 20.4166 62.3211 20.4614 62.3214 20.5077C62.3154 20.645 62.2945 20.7668 62.2659 20.8989C62.4909 20.8913 62.7159 20.8831 62.9409 20.8747C63.0174 20.8719 63.0939 20.8692 63.1704 20.8666C63.2804 20.8628 63.3904 20.8587 63.5009 20.8545C63.5524 20.8528 63.5524 20.8528 63.6044 20.8512C63.7539 20.8451 63.8724 20.8308 64.0154 20.7685C64.1174 20.7594 64.2194 20.7538 64.3214 20.7502C64.4159 20.7466 64.4159 20.7466 64.5124 20.743C64.5461 20.7418 64.5799 20.7407 64.6144 20.7395C64.7199 20.736 64.8259 20.732 64.9314 20.728C65.1559 20.7195 65.3809 20.7115 65.6064 20.7035C65.8664 20.6942 66.1264 20.6847 66.3864 20.6748C66.4904 20.671 66.5939 20.6674 66.6979 20.6639C66.7934 20.6603 66.7934 20.6603 66.8904 20.6567C66.9459 20.6547 67.0019 20.6527 67.0594 20.6507C67.2154 20.642 67.2154 20.642 67.3659 20.6054C67.5254 20.5711 67.6769 20.5633 67.8384 20.5609C67.9014 20.5598 67.9644 20.5587 68.0294 20.5576C68.0628 20.5572 68.0964 20.5567 68.1304 20.5563C68.2359 20.5549 68.3414 20.5531 68.4474 20.5513C68.6719 20.5474 68.8969 20.544 69.1224 20.5407C69.3819 20.5368 69.6424 20.5327 69.9024 20.5282C70.0054 20.5265 70.1084 20.5251 70.2114 20.5238C70.4964 20.5189 70.7764 20.51 71.0614 20.475C71.4404 20.4295 71.8214 20.4337 72.2014 20.4344C72.2799 20.4343 72.3584 20.4343 72.4374 20.4342C72.6009 20.4341 72.7639 20.4342 72.9274 20.4345C73.1369 20.4349 73.3469 20.4347 73.5574 20.4343C73.7189 20.4341 73.8809 20.4341 74.0424 20.4343C74.1199 20.4343 74.1974 20.4343 74.2744 20.4341C74.3819 20.434 74.4894 20.4342 74.5969 20.4346C74.6884 20.4347 74.6884 20.4347 74.7824 20.4347C74.9189 20.443 74.9189 20.443 74.9689 20.5083C75.0864 20.5236 75.2044 20.5353 75.3219 20.5449C75.3864 20.5504 75.4509 20.5558 75.5174 20.5614C75.5673 20.5654 75.6174 20.5693 75.6689 20.5734V20.7036C75.7184 20.7251 75.7679 20.7466 75.8189 20.7687V20.8989H75.9189V21.0291H76.0189C76.1934 21.3084 76.1824 21.5317 76.1689 21.8755H76.2689V22.787H76.1689C76.1706 22.8683 76.1706 22.8683 76.1724 22.951C76.1733 23.022 76.1742 23.0923 76.1751 23.1652C76.1768 23.2707 76.1768 23.2707 76.1786 23.3781C76.1689 23.5682 76.1689 23.5682 76.0686 23.7635C76.0489 23.9146 76.0319 24.0669 76.0186 24.2192H75.9186V24.5448H75.8186L75.7999 24.7525C75.7731 24.9653 75.7369 25.1314 75.6689 25.326H75.5689V25.6515H75.4689L75.4189 25.9771H75.3189V26.2375C75.2499 26.3514 75.2499 26.3514 75.1689 26.4328H75.0689V26.6281H74.9689L74.9189 26.8885H74.8189V27.0838H74.7189V27.214C74.6499 27.3195 74.6499 27.3195 74.5689 27.4094H74.4689V27.5396H74.3689V27.6698C74.2999 27.7752 74.2999 27.7752 74.2189 27.8651H74.1189V27.9953H73.9689V28.1255L73.7689 28.1906V28.3208H69.1689V28.1906H61.4689C61.3854 28.6659 61.3854 28.6659 61.3379 29.1411C61.3341 29.1963 61.3304 29.2512 61.3265 29.3084C61.3228 29.3687 61.3228 29.3687 61.3191 29.4302H61.2191V30.3416H61.1191C61.1197 30.3969 61.1203 30.4523 61.1209 30.509C61.1297 32.0064 61.1297 32.0064 61.0189 32.2928C61.0139 32.3931 61.012 32.4933 61.0116 32.5929C61.0113 32.6553 61.011 32.7179 61.0107 32.7818C61.0106 32.8495 61.0106 32.9172 61.0105 32.9868C61.0103 33.0565 61.0102 33.1262 61.01 33.1978C61.0097 33.3456 61.0096 33.4927 61.0096 33.6405C61.0095 33.8651 61.0086 34.0903 61.0077 34.3176C61.0075 34.4608 61.0074 34.604 61.0074 34.7472C61.007 34.8143 61.0067 34.8814 61.0063 34.9504C61.0072 35.3091 61.0334 35.6001 61.1188 35.94C61.1225 36.0916 61.1235 36.244 61.1188 36.3957H61.2188C61.2302 36.5291 61.2416 36.6626 61.253 36.7961C61.2597 36.9172 61.2597 36.9172 61.319 36.9816C61.321 37.0903 61.3211 37.1984 61.319 37.3071H61.469V37.7629H61.569V38.0884H61.669L61.719 38.4139H61.819V38.5441H61.919L61.969 38.8696H62.069V38.9998H62.169V39.1952H62.319V39.3254H62.419V39.5207H62.569V39.6509H62.669V39.7811L62.919 39.8462V39.9764H63.119V40.1066H63.269V40.2368L63.519 40.3019V40.4321H63.869V40.6275H64.119V40.7577H64.569V40.8879L64.7285 40.8797C64.919 40.8879 64.919 40.8879 65.0315 40.9507C65.2065 41.036 65.375 41.0477 65.5615 41.0588C65.5961 41.0613 65.631 41.0638 65.6665 41.0664C65.7515 41.0725 65.836 41.0779 65.921 41.0832V41.2134C65.9568 41.2131 65.9925 41.2127 66.0295 41.2124C66.191 41.211 66.353 41.2102 66.5145 41.2093C66.571 41.2088 66.6275 41.2082 66.6855 41.2077C66.7395 41.2075 66.793 41.2072 66.8485 41.207C66.8982 41.2067 66.948 41.2063 66.9995 41.206C67.121 41.2134 67.121 41.2134 67.221 41.2783C67.357 41.2847 67.492 41.2874 67.6285 41.2869C67.6689 41.287 67.7095 41.287 67.751 41.2871C67.8365 41.2872 67.9225 41.287 68.008 41.2868C68.139 41.2864 68.27 41.2868 68.4005 41.2872C68.4835 41.2871 68.567 41.2871 68.65 41.2869C68.6891 41.2871 68.728 41.2872 68.7685 41.2873C68.945 41.2863 69.1005 41.2705 69.2685 41.2131C69.3625 41.2079 69.4565 41.2061 69.5505 41.2067C69.604 41.207 69.6575 41.2072 69.7125 41.2074C69.768 41.2079 69.8235 41.2085 69.881 41.209C69.9655 41.2095 69.9655 41.2095 70.0515 41.2099C70.1905 41.2107 70.3295 41.2118 70.4685 41.2131V41.0829C70.5295 41.0797 70.5905 41.0765 70.653 41.0733C70.734 41.0684 70.8155 41.0634 70.8965 41.0585C70.9365 41.0565 70.9765 41.0544 71.0175 41.0524C71.266 41.0366 71.4785 40.9808 71.7175 40.8877C71.861 40.875 71.861 40.875 71.9895 40.8795C72.0327 40.8807 72.076 40.8819 72.1205 40.8831C72.1525 40.8846 72.1845 40.8861 72.2175 40.8877V40.7575H72.7675V40.6272L73.2675 40.5621V40.4319H73.7175V40.3017H74.1175V40.1715C74.233 40.15 74.3485 40.1285 74.4675 40.1064V39.9762L75.0675 39.7809V39.6507C75.1018 39.6381 75.136 39.6255 75.1715 39.6125C75.2165 39.5956 75.2615 39.5786 75.308 39.5612C75.375 39.5362 75.375 39.5362 75.4435 39.5108C75.578 39.4585 75.578 39.4585 75.7175 39.3253H75.9175V39.1951H76.2675V39.0649L76.5175 38.9998V38.8696H76.7675V38.7393L77.0175 38.6742V38.544H77.2675V38.4138C77.379 38.3791 77.4905 38.3455 77.602 38.3123C77.664 38.2934 77.726 38.2745 77.79 38.255C77.9555 38.2211 78.0585 38.224 78.2175 38.2838V38.414H78.3175V38.5442H78.4675V38.6744H78.5675V38.8697H78.6675V38.9999C78.717 39.0214 78.7665 39.0429 78.8175 39.065V39.1952H78.9175C79.0675 39.4804 79.0675 39.4804 79.0675 39.6509H79.1675V39.9114H79.2675C79.4095 40.1535 79.4335 40.3261 79.4175 40.6275H79.5175L79.5644 40.8476C79.6087 41.0702 79.6087 41.0702 79.6674 41.2134C79.7108 41.9101 79.7152 42.6392 79.5174 43.2968H79.4174L79.4268 43.5045C79.417 43.7629 79.389 43.8769 79.2673 44.078H79.1673V44.4035H79.0673L79.0173 44.5989H78.9173V44.7291H78.8173L78.7673 45.0546H78.6673V45.1848H78.5673V45.3801H78.4673V45.5103H78.3173V45.6405H78.2173V45.8358H78.0673V45.966H77.9673V46.0963C77.8393 46.246 77.7933 46.2916 77.6173 46.2916V46.4218H77.4673V46.6171L77.1173 46.7473V46.8775H76.9673V47.0077H76.7673V47.1379L76.5173 47.203V47.3332H76.2673V47.4634C75.9028 47.6867 75.9028 47.6867 75.6673 47.6588V47.789H75.4173V47.9192C75.2688 47.9407 75.1203 47.9621 74.9673 47.9843V48.1145H74.6173V48.2447L74.2173 48.3098V48.44H73.7673V48.5702C73.7383 48.5734 73.7093 48.5766 73.6793 48.5798C73.4968 48.6026 73.3353 48.6273 73.1593 48.7042C72.9893 48.7765 72.8433 48.7745 72.6653 48.7653V48.8955H72.0653V49.0257C72.0153 49.0343 71.9653 49.043 71.9138 49.0519C71.8493 49.0634 71.7848 49.0748 71.7183 49.0867C71.6538 49.098 71.5893 49.1093 71.5233 49.121C71.3728 49.1338 71.3728 49.1338 71.3153 49.2213C71.1978 49.226 71.0798 49.2267 70.9623 49.2253C70.8978 49.2247 70.8333 49.2242 70.7668 49.2235C70.6918 49.2224 70.6918 49.2224 70.6153 49.2213V49.3515C70.5608 49.3547 70.5063 49.3578 70.4503 49.3611C70.3763 49.366 70.3018 49.3709 70.2278 49.3759C70.1923 49.3779 70.1568 49.3799 70.1203 49.382C69.9143 49.3962 69.7203 49.4277 69.5203 49.4822C69.0428 49.5871 68.5603 49.5656 68.0753 49.5643C67.9698 49.5644 67.8643 49.5645 67.7588 49.5647C67.5383 49.5648 67.3183 49.5646 67.0988 49.564C66.8173 49.5632 66.5338 49.5636 66.2538 49.5644C66.0363 49.5649 65.8183 49.5647 65.5988 49.5644C65.4953 49.5643 65.3913 49.5644 65.2878 49.5647C65.1428 49.5651 64.9973 49.5645 64.8523 49.5638C64.7893 49.5642 64.7893 49.5642 64.7248 49.5646C64.4668 49.5623 64.2293 49.5213 63.9798 49.4474C63.8068 49.4007 63.6373 49.3888 63.4598 49.3765C63.3948 49.3716 63.3298 49.3667 63.2623 49.3617C63.2139 49.3585 63.1658 49.3553 63.1158 49.3521V49.2219C63.0759 49.2234 63.0363 49.2249 62.9953 49.2264C62.9158 49.2282 62.9158 49.2282 62.8348 49.23C62.7828 49.2315 62.7303 49.233 62.6768 49.2346C62.5053 49.221 62.3783 49.1643 62.2163 49.0913C62.0608 49.0495 61.9043 49.0178 61.7473 48.9859C61.6848 48.9728 61.6848 48.9728 61.6213 48.9594C61.5198 48.9382 61.4178 48.9172 61.3158 48.8964V48.7661C61.1673 48.7447 61.0188 48.7232 60.8658 48.701V48.5708H60.5158V48.4406H60.1658V48.3104C60.0668 48.2889 59.9678 48.2674 59.8658 48.2453V48.1151H59.6158V47.9849C59.5168 47.9634 59.4178 47.9419 59.3158 47.9198V47.7896H59.1658V47.6594H58.9158V47.5292L58.6658 47.4641V47.3339H58.4658C58.3783 47.244 58.3783 47.244 58.3158 47.1385V47.0083H58.2158V46.8781L57.9658 46.7479V46.6177H57.8658V46.4224L57.6158 46.2922V46.0969H57.5158L57.4658 45.8365H57.3658V45.6411H57.2658V45.3807C57.2163 45.3592 57.1668 45.3378 57.1158 45.3156V45.0552H57.0158V44.8599H56.9158L56.8658 44.4042H56.7658V44.0786H56.6658L56.6158 43.6229H56.5158V43.1672H56.4158C56.4133 43.1294 56.4109 43.0917 56.4084 43.0526C56.3909 42.815 56.3719 42.6047 56.3129 42.3755C56.2574 42.1542 56.2589 41.9641 56.266 41.7323H56.166C56.1647 41.6827 56.1635 41.6333 56.1622 41.5819C56.1564 41.3566 56.1502 41.1314 56.1441 40.9048C56.1421 40.8267 56.1402 40.7486 56.1381 40.6685C56.136 40.593 56.1339 40.5181 56.1318 40.44C56.13 40.371 56.1281 40.3013 56.1262 40.2303C56.1196 40.0422 56.1196 40.0422 56.0904 39.8788C56.0596 39.6698 56.0595 39.4712 56.0593 39.2583C56.0593 39.1945 56.0593 39.1945 56.0592 39.1294C56.0592 39.0402 56.0593 38.9504 56.0595 38.8612C56.0597 38.7238 56.0595 38.5871 56.0591 38.4497C56.0592 38.3625 56.0592 38.2753 56.0593 38.1887C56.0594 38.1099 56.0595 38.0305 56.0595 37.9491C56.066 37.7603 56.066 37.7603 56.116 37.6301C56.1238 37.4686 56.1289 37.3091 56.1318 37.1477C56.1334 37.0767 56.1334 37.0767 56.135 37.0038C56.1382 36.8521 56.1412 36.6997 56.1441 36.548C56.1463 36.4452 56.1484 36.3423 56.1507 36.2395C56.156 35.9868 56.1611 35.7342 56.166 35.4842H56.266C56.2654 35.4425 56.2648 35.4009 56.2642 35.3579C56.2616 35.0227 56.2719 34.7075 56.3162 34.3749H56.4162V33.2681H56.5162C56.5151 33.2023 56.5139 33.1359 56.5127 33.0682C56.5118 32.9803 56.5109 32.8924 56.51 32.8046C56.5092 32.7613 56.5083 32.718 56.5075 32.673C56.5053 32.3859 56.5439 32.1691 56.6165 31.8983C56.6303 31.7499 56.6407 31.6001 56.6477 31.4504C56.6514 31.3755 56.6552 31.3006 56.6591 31.2232C56.6627 31.1385 56.6627 31.1385 56.6665 31.052H56.7665V30.1405H56.8665L56.8602 29.8879C56.8599 29.6691 56.8754 29.4745 56.9132 29.2616C56.9957 28.7811 56.9997 28.285 57.0162 27.7967H57.1162C57.115 27.7316 57.1139 27.6665 57.1127 27.5988C57.1118 27.5116 57.1108 27.4243 57.11 27.3365C57.1088 27.2512 57.1076 27.1659 57.1064 27.078C57.1163 26.8182 57.1594 26.6125 57.2164 26.3618C57.2301 26.201 57.2406 26.0396 57.2477 25.8775C57.2514 25.7967 57.2552 25.7167 57.259 25.6333C57.2615 25.5728 57.2639 25.5122 57.2664 25.4497H57.3664V24.0174H57.4664C57.4659 23.9579 57.4653 23.8983 57.4647 23.8371C57.4607 23.2173 57.4716 22.6001 57.4883 21.9816C57.4903 21.9042 57.4923 21.8273 57.4943 21.7479C57.4974 21.6385 57.4974 21.6385 57.5006 21.5272C57.5025 21.4621 57.5043 21.397 57.5062 21.3293C57.5164 21.1561 57.5164 21.1561 57.5417 21.0402C57.5736 20.854 57.5728 20.6796 57.5729 20.4888C57.5732 20.3651 57.5732 20.3651 57.5734 20.2394C57.5733 20.1496 57.5732 20.0604 57.5731 19.9706C57.5731 19.8781 57.5732 19.7863 57.5732 19.6939C57.5733 19.5005 57.5732 19.3072 57.573 19.1144C57.5727 18.8671 57.5729 18.6203 57.5732 18.3723C57.5733 18.1815 57.5733 17.9914 57.5732 17.8006C57.5731 17.7095 57.5732 17.6184 57.5733 17.5272C57.5734 17.3996 57.5732 17.272 57.5729 17.1444C57.5729 17.0721 57.5729 16.9992 57.5728 16.9243C57.5669 16.7427 57.5462 16.5806 57.5163 16.4035C57.509 16.246 57.504 16.0884 57.5005 15.9309C57.499 15.8625 57.499 15.8625 57.4974 15.7935C57.4941 15.647 57.4911 15.5005 57.4882 15.354C57.4861 15.2538 57.4839 15.1535 57.4818 15.0533C57.4673 14.3501 57.4599 13.6535 57.4663 12.9504H57.3663V10.6717H57.2663V10.216H56.8663V10.3462H55.5663V10.216C55.5168 10.1945 55.4673 10.173 55.4163 10.1509V10.0207H55.3163V9.76028H55.2163V7.80716H55.3163V6.83059H55.4163L55.4663 6.04934H55.5663V5.46341H55.6663L55.7163 4.94257H55.8163V4.61705H55.9163L55.9663 4.16132H56.0663V3.96601H56.1663V3.70559L56.4163 3.57539V3.31497H56.5163L56.5663 3.11966H56.6663V2.98945H56.7663V2.85924C56.8353 2.75377 56.8353 2.75377 56.9163 2.66393H57.0163V2.53372C57.1443 2.38398 57.1903 2.33841 57.3663 2.33841V2.2082H57.5163V2.07799L57.7663 2.01289V1.88268H58.0663V1.75247C58.1673 1.7207 58.2683 1.68886 58.3688 1.65742C58.4688 1.62591 58.4688 1.62591 58.5663 1.55716C58.6848 1.55252 58.8038 1.55168 58.9223 1.55309C58.9863 1.55367 59.0503 1.55426 59.1163 1.55486C59.1903 1.556 59.1903 1.556 59.2658 1.55716V1.42695C59.2956 1.42531 59.3253 1.42369 59.3558 1.42201C59.4903 1.41445 59.6248 1.40645 59.7593 1.39844C59.8062 1.39588 59.8528 1.39332 59.9013 1.39069C59.9461 1.38796 59.9908 1.38524 60.0368 1.38242C60.0782 1.38003 60.1193 1.37765 60.1623 1.3752C60.2683 1.36949 60.2683 1.36949 60.3653 1.29642C60.8083 1.19421 61.2653 1.22546 61.7153 1.23132V1.10111C61.7618 1.09947 61.8083 1.09785 61.8558 1.09617C62.0278 1.08998 62.1998 1.08354 62.3708 1.0769C62.4453 1.07407 62.5198 1.07136 62.5943 1.06876C62.7013 1.065 62.8083 1.06088 62.9153 1.05665C62.9798 1.05426 63.0443 1.05188 63.1103 1.04942C63.2598 1.04938 63.2598 1.04938 63.3638 0.970646C63.4313 0.961531 63.4988 0.955932 63.5663 0.952351C63.608 0.949962 63.6498 0.947566 63.6928 0.945125C63.7379 0.94282 63.7828 0.940509 63.8293 0.938159C63.8756 0.935515 63.9218 0.932872 63.9693 0.930151C64.1678 0.918823 64.3658 0.908211 64.5643 0.897468C64.7088 0.889591 64.8533 0.881323 64.9978 0.873054C65.0429 0.87075 65.0878 0.868439 65.1343 0.866088C65.176 0.863699 65.2178 0.861303 65.2608 0.858862C65.2976 0.856889 65.3343 0.854916 65.3723 0.852885C65.4683 0.846928 65.4683 0.846928 65.5633 0.775411C65.6433 0.769539 65.7238 0.767729 65.8043 0.767989C65.8543 0.767994 65.9043 0.767999 65.9558 0.768004C66.0098 0.76834 66.0643 0.768675 66.1198 0.76902C66.1753 0.769112 66.2303 0.769204 66.2873 0.769299C66.4648 0.769664 66.6418 0.770484 66.8173 0.771311C66.9373 0.771637 67.0573 0.771935 67.1773 0.772203C67.4718 0.772919 67.7673 0.774013 68.0623 0.77538V0.645172C68.7323 0.631565 69.4023 0.61952 70.0723 0.608583C70.1228 0.607756 70.1738 0.606923 70.2258 0.60607C71.9008 0.579117 73.5708 0.5812 75.2258 0.608583L75.2502 0.614697Z" fill="white"/>
<path d="M20.6501 0.615961C20.8356 0.620017 21.0211 0.623838 21.2051 0.627745C21.5641 0.635297 21.9251 0.642979 22.2801 0.650857V0.781065H23.3301V0.911273L23.7301 0.976377V1.10659H24.0801V1.23679L24.1991 1.29786C24.4111 1.40984 24.4711 1.49252 24.5801 1.7575V1.88771H24.6801V2.34343H24.7801V3.97104H24.6801V4.55698H24.5801L24.5614 4.7562C24.5311 5.00489 24.4864 5.2282 24.4304 5.46583H24.3304L24.2804 5.79135H24.1804V5.98666H24.0804V6.24708C24.0114 6.36101 24.0114 6.36101 23.9304 6.44239H23.8304V6.70281H23.7304V6.89812H23.5804V7.09343H23.4804V7.35385H23.3304L23.2304 7.67937H23.1304V7.80958H22.9804V8.00489H22.8804V8.1351H22.7304V8.33041H22.6304V8.46062H22.4804V8.59083C22.2944 8.77573 22.1619 8.80698 21.9304 8.78614V8.91635C21.0304 9.02052 20.1304 8.97755 19.2254 8.9489C19.1234 8.94575 19.0214 8.94262 18.9189 8.93946C18.6719 8.93191 18.4254 8.92416 18.1789 8.91635V8.78614C18.1494 8.78629 18.1199 8.78643 18.0894 8.78658C17.7819 8.78802 17.4744 8.789 17.1694 8.78972C17.0549 8.79005 16.9399 8.79049 16.8254 8.79105C16.6604 8.79184 16.4954 8.79221 16.3304 8.7925C16.2534 8.793 16.2534 8.793 16.1754 8.79351C16.1273 8.79352 16.0794 8.79352 16.0299 8.79353C15.9878 8.79367 15.9459 8.79382 15.9024 8.79397C15.7744 8.7857 15.6564 8.75621 15.5314 8.72105C15.3389 8.70028 15.1464 8.69332 14.9514 8.68446C14.8929 8.68175 14.8344 8.67903 14.7739 8.67626C12.8939 8.56037 12.8939 8.56037 11.0239 8.75438C10.7714 8.79533 10.5239 8.7941 10.2689 8.7924C10.2159 8.79231 10.1634 8.79222 10.1089 8.79213C9.9414 8.79176 9.7739 8.79095 9.6039 8.79011C9.4899 8.78979 9.3759 8.78949 9.2619 8.78922C8.9834 8.78851 8.7069 8.78742 8.4269 8.78604V8.91625L7.8269 8.98136C7.82502 9.09724 7.82502 9.09724 7.8231 9.21508C7.81839 9.50219 7.8134 9.7893 7.8083 10.0745C7.80614 10.1988 7.80406 10.3225 7.80205 10.4469C7.79916 10.6252 7.79595 10.8043 7.79275 10.9827C7.79192 11.0379 7.79108 11.0933 7.79022 11.15C7.78522 11.4123 7.76807 11.6519 7.72672 11.9117C7.71937 12.079 7.71397 12.2457 7.71092 12.4136C7.70936 12.4846 7.70936 12.4846 7.70777 12.5569C7.70452 12.7066 7.70157 12.8564 7.69862 13.0067C7.69646 13.109 7.69428 13.2105 7.69207 13.3127C7.68672 13.5621 7.68167 13.8114 7.67672 14.0614H7.57672C7.57751 14.1248 7.57751 14.1248 7.57831 14.1897C7.58611 14.9123 7.59116 15.6155 7.50231 16.3316C7.43581 16.9338 7.44081 17.5556 7.42681 18.161H7.32681V19.6584H7.22681L7.17681 20.8954C7.40281 20.8876 7.62881 20.8797 7.85681 20.8712C7.93381 20.8684 8.01081 20.8657 8.08781 20.8631C8.19831 20.8593 8.30881 20.8552 8.41931 20.851C8.47081 20.8493 8.47081 20.8493 8.52381 20.8477C8.70781 20.8429 8.70781 20.8429 8.87931 20.765C8.97831 20.7556 9.07781 20.7502 9.17731 20.7467C9.27131 20.7431 9.27131 20.7431 9.36681 20.7395C9.40036 20.7383 9.43381 20.7372 9.46831 20.736C9.57331 20.7324 9.67781 20.7285 9.78281 20.7245C10.0053 20.716 10.2283 20.7079 10.4528 20.6999C10.7108 20.6907 10.9678 20.6813 11.2278 20.6713C11.3313 20.6674 11.4343 20.6639 11.5378 20.6604C11.6003 20.658 11.6633 20.6556 11.7278 20.6531C11.7833 20.6512 11.8383 20.6492 11.8953 20.6472C12.0368 20.6419 12.0368 20.6419 12.1823 20.5697C12.2953 20.5623 12.4083 20.5588 12.5213 20.5574C12.5556 20.5568 12.5898 20.5563 12.6253 20.5557C12.6998 20.5546 12.7743 20.5536 12.8483 20.5528C12.9663 20.5514 13.0848 20.5496 13.2028 20.5478C13.4543 20.5439 13.7078 20.5405 13.9578 20.5372C14.2483 20.5333 14.5378 20.5292 14.8278 20.5246C14.9433 20.5229 15.0588 20.5216 15.1748 20.5202C15.4708 20.5161 15.7648 20.5114 16.0598 20.4715C16.4138 20.4238 16.7698 20.4301 17.1248 20.4308C17.1998 20.4308 17.2748 20.4307 17.3503 20.4306C17.5063 20.4306 17.6628 20.4307 17.8188 20.431C18.0188 20.4314 18.2188 20.4312 18.4188 20.4308C18.5733 20.4305 18.7278 20.4306 18.8823 20.4308C18.9563 20.4308 19.0298 20.4308 19.1038 20.4306C19.2068 20.4304 19.3093 20.4307 19.4123 20.4311C19.4998 20.4311 19.4998 20.4311 19.5893 20.4312C19.7328 20.4395 19.7328 20.4395 19.8828 20.5048C19.9673 20.5114 20.0513 20.5166 20.1358 20.5211C20.4418 20.5524 20.6708 20.6949 20.9308 20.8954V21.0256H21.0308C21.0983 21.4019 21.0918 21.7743 21.0928 22.1584C21.0933 22.2867 21.0948 22.4156 21.0964 22.5438C21.0982 23.1298 21.0429 23.6441 20.9309 24.217H20.8309L20.8403 24.3511C20.828 24.6024 20.7628 24.7711 20.6808 24.9983H20.5808V25.3238H20.4808L20.4308 25.6493H20.3308V25.9748H20.2308V26.105H20.1308L20.0808 26.4306H19.9808V26.6259H19.8808L19.8308 26.8863H19.7308V27.0816H19.6308V27.2118H19.5308L19.4808 27.4071H19.3808V27.5373H19.2808L19.2308 27.7326H19.1308V27.8629H19.0308V27.9931H18.8808V28.1233L18.6308 28.1884V28.3186H14.0808V28.1884H6.33082V28.3186H6.23082V29.23H6.13082C6.13198 29.2867 6.13314 29.3433 6.13434 29.4019C6.13954 29.8492 6.12099 30.2613 6.05634 30.6975C6.00134 31.1806 5.99584 31.6741 5.98084 32.1558H5.88084C5.88669 32.6076 5.89294 33.0608 5.89944 33.51C5.90161 33.6636 5.90369 33.8179 5.90569 33.9716C5.90857 34.1923 5.91174 34.413 5.91499 34.6356C5.91582 34.7047 5.91666 34.7737 5.91752 34.8453C5.91851 34.9091 5.91951 34.9729 5.92054 35.0386C5.92131 35.095 5.92209 35.1513 5.92289 35.2092C5.92435 35.3498 5.92435 35.3498 5.98089 35.4761C5.99474 35.6728 6.00324 35.8687 6.01194 36.0653C6.03029 36.2509 6.06594 36.3544 6.13094 36.5178C6.14324 36.6936 6.13548 36.8616 6.13094 37.0386H6.23094V37.4293H6.33094L6.38094 37.7548H6.48094V38.0803H6.58094L6.63094 38.4058H6.73094V38.6662H6.83094V38.8616H6.98094V39.0569H7.08094V39.1871H7.18094V39.3173H7.33094V39.5126H7.43094V39.6428H7.58094V39.773L7.69994 39.8341C7.83094 39.9031 7.83094 39.9031 7.93094 39.9682V40.0984L8.18094 40.1635V40.2937H8.43094V40.4239H8.78094V40.5541C8.89644 40.5756 9.01194 40.5971 9.13094 40.6192V40.7494H9.48094V40.8797L9.98094 40.9448V41.075H10.6809V41.2052C10.716 41.2048 10.7509 41.2045 10.7869 41.2041C10.9464 41.2028 11.1059 41.2019 11.2649 41.2011C11.3199 41.2006 11.3754 41.2 11.4319 41.1995C11.4854 41.1992 11.5384 41.199 11.5934 41.1988C11.6424 41.1985 11.6914 41.1981 11.7419 41.1978C11.8804 41.2052 11.8804 41.2052 11.9969 41.2376C12.1819 41.2829 12.3649 41.2796 12.5519 41.2789C12.5922 41.279 12.6324 41.279 12.6739 41.2791C12.7589 41.2791 12.8434 41.279 12.9284 41.2787C13.0579 41.2784 13.1874 41.2787 13.3169 41.2792C13.3994 41.2791 13.4819 41.279 13.5644 41.2789C13.6031 41.279 13.6419 41.2792 13.6814 41.2793C13.8569 41.2783 14.0109 41.262 14.1799 41.2051C14.2739 41.1999 14.3679 41.1981 14.4619 41.1987C14.5154 41.1989 14.5689 41.1991 14.6239 41.1994C14.6794 41.1999 14.7349 41.2004 14.7924 41.201C14.8769 41.2015 14.8769 41.2015 14.9629 41.2019C15.1019 41.2027 15.2409 41.2037 15.3799 41.2051V41.0749C15.4364 41.0717 15.4934 41.0685 15.5519 41.0652C15.6279 41.0603 15.7039 41.0554 15.7799 41.0505C15.8171 41.0484 15.8544 41.0464 15.8924 41.0443C16.0814 41.0315 16.2559 41.0066 16.4374 40.9428C16.6114 40.8852 16.7499 40.866 16.9279 40.8718C16.9989 40.8736 16.9989 40.8736 17.0719 40.8754C17.1244 40.8777 17.1244 40.8777 17.1779 40.88V40.7498C17.21 40.7466 17.2419 40.7434 17.2749 40.7401C17.5394 40.7104 17.7744 40.6555 18.0299 40.5546H18.1799V40.4244H18.5299V40.2942C18.6119 40.282 18.6119 40.282 18.6954 40.2697C18.8834 40.245 18.8834 40.245 19.0299 40.0992C19.1644 40.091 19.1644 40.091 19.2799 40.0992V39.969H19.6299V39.8387C19.7454 39.8173 19.8609 39.7958 19.9799 39.7736V39.6434H20.3299V39.5132L20.5799 39.4481V39.3179H20.8299V39.1877H21.0799V39.0575L21.3299 38.9924V38.8622H21.5299V38.732H21.7799V38.6018L22.0299 38.5367V38.4065C22.4594 38.2574 22.9149 38.1571 23.3299 38.4065V38.5367H23.4799V38.732H23.5799V38.8622H23.7299V39.0575H23.8299V39.3179H23.9299V39.5132H24.0299L24.0799 39.8387H24.1799C24.3299 40.2619 24.3299 40.2619 24.3299 40.5549H24.4299V41.0106H24.5299C24.6039 41.8179 24.5656 42.5015 24.4299 43.2893H24.3299L24.2799 43.6148H24.1799V43.9403H24.0799L24.0612 44.0503C24.0269 44.2151 23.9802 44.3687 23.9302 44.5262H23.8302V44.7216H23.7302C23.7147 44.7726 23.6992 44.8238 23.6833 44.8765C23.6303 45.0471 23.6303 45.0471 23.5803 45.1773H23.4803L23.4303 45.3726H23.3303V45.5028H23.2303V45.633H23.1303L23.0803 45.8283H22.9803V45.9585C22.7613 46.1539 22.7613 46.1539 22.6303 46.1539V46.2841L22.3803 46.4143V46.5445C22.2998 46.6285 22.2998 46.6285 22.1928 46.7151C22.1408 46.7586 22.1408 46.7586 22.0873 46.8029C21.9803 46.8694 21.9803 46.8694 21.7803 46.8694V46.9996H21.6303V47.1298L21.4303 47.1949V47.3251H21.1803V47.4553L21.0833 47.4797L20.9803 47.5204L20.9303 47.6506H20.6803V47.7808C20.4468 47.8739 20.2238 47.9371 19.9803 47.9761V48.1063L19.8273 48.1307C19.6388 48.1697 19.4638 48.233 19.2823 48.3013H19.1323V48.4315H18.7823V48.5617C18.7491 48.5649 18.7158 48.5681 18.6818 48.5714C18.4438 48.5976 18.2543 48.6397 18.0318 48.7569C17.9153 48.7619 17.7983 48.7629 17.6818 48.7569V48.8871H17.0818V49.0173C17.0288 49.026 16.9758 49.0346 16.9213 49.0435C16.8518 49.0551 16.7823 49.0667 16.7133 49.0783C16.6608 49.0869 16.6608 49.0869 16.6073 49.0955C16.4133 49.1256 16.4133 49.1256 16.2318 49.2127C16.1133 49.2173 15.9943 49.2182 15.8758 49.2168C15.8118 49.2162 15.7478 49.2156 15.6818 49.215C15.6078 49.2139 15.6078 49.2139 15.5323 49.2127V49.3429C15.4778 49.3461 15.4233 49.3493 15.3673 49.3526C15.2933 49.3574 15.2188 49.3624 15.1448 49.3673C15.1093 49.3693 15.0738 49.3714 15.0373 49.3734C14.8308 49.3877 14.6353 49.4195 14.4323 49.4737C13.9708 49.5753 13.5073 49.557 13.0373 49.5557C12.9363 49.5558 12.8358 49.5559 12.7348 49.5561C12.5243 49.5563 12.3138 49.556 12.1048 49.5554C11.8363 49.5547 11.5698 49.5551 11.2998 49.5559C11.0918 49.5563 10.8838 49.5562 10.6748 49.5559C10.5758 49.5558 10.4773 49.5559 10.3783 49.5562C9.44829 49.5584 9.44829 49.5584 8.99829 49.439C8.81429 49.3912 8.63029 49.3792 8.44329 49.368C8.40784 49.3655 8.37229 49.363 8.33579 49.3604C8.25079 49.3544 8.16579 49.349 8.08079 49.3436V49.2134C8.04154 49.2149 8.00229 49.2164 7.96179 49.218C7.66229 49.2247 7.41679 49.2075 7.13179 49.0832C6.80079 48.981 6.47179 48.9237 6.13179 48.8879V48.7577L5.98179 48.7333C5.77729 48.6957 5.58129 48.6311 5.38179 48.5627V48.4325H5.03179V48.3023C4.91629 48.2808 4.80079 48.2593 4.68179 48.2372V48.107H4.43179V47.9768L4.18179 47.9117V47.7815H3.98179V47.6513L3.73179 47.5861V47.4559H3.58179V47.3257H3.48179V47.1955L3.23179 47.1304V47.0002H3.13179V46.87L2.88179 46.7398V46.6096H2.78179V46.4143H2.63179V46.2841H2.53179C2.38179 45.9989 2.38179 45.9989 2.38179 45.8283H2.28179V45.633H2.18179L2.13179 45.3726H2.03179V45.0471H1.93179L1.88179 44.7216H1.78179V44.4611H1.68179C1.60279 44.1792 1.55929 43.9123 1.53179 43.6148H1.43179V43.0289H1.33179C1.32514 42.9833 1.31849 42.9377 1.31169 42.8908C1.30284 42.8316 1.29404 42.7723 1.28494 42.7111C1.27189 42.6226 1.27189 42.6226 1.25859 42.5328C1.23684 42.3778 1.23684 42.3778 1.18159 42.2476C1.17801 42.0816 1.17694 41.9175 1.17847 41.7515C1.17869 41.7056 1.17892 41.6597 1.17915 41.6122C1.17974 41.4989 1.18064 41.385 1.18159 41.2717H1.08159C1.08034 41.23 1.07909 41.1884 1.0778 41.1454C1.072 40.9553 1.06585 40.7658 1.0597 40.5757C1.05773 40.51 1.05577 40.4449 1.05375 40.3772C1.05165 40.3136 1.04956 40.2502 1.0474 40.1845C1.04556 40.1262 1.04373 40.0679 1.04185 40.008C1.0342 39.8394 1.0342 39.8394 1.006 39.676C0.980797 39.5093 0.975097 39.3576 0.974947 39.1877C0.97485 39.0959 0.974851 39.0959 0.974752 39.0022C0.974945 38.939 0.975138 38.8759 0.975336 38.8108C0.975046 38.717 0.975047 38.717 0.974752 38.6213C0.975076 38.3121 0.985151 38.0158 1.0189 37.7098C1.0491 37.3589 1.051 37.0067 1.0597 36.6486C1.06186 36.5673 1.06402 36.4859 1.06625 36.4019C1.0715 36.202 1.07665 36.0022 1.0816 35.8023H1.1816C1.18044 35.7274 1.17928 35.6532 1.17809 35.5764C1.17715 35.4768 1.17624 35.3772 1.17535 35.2776C1.17451 35.2286 1.17368 35.1799 1.17281 35.1291C1.17067 34.8075 1.20971 34.5497 1.28181 34.2372C1.29431 34.0777 1.30376 33.9175 1.30991 33.7567C1.32676 33.3322 1.32676 33.3322 1.38191 33.2606C1.39376 33.0744 1.40301 32.8895 1.41001 32.7033C1.41217 32.6509 1.41433 32.5985 1.41656 32.5445C1.42186 32.4143 1.42691 32.2841 1.43191 32.1545H1.53191L1.52566 31.9019C1.5254 31.6819 1.54106 31.4859 1.57866 31.271C1.65716 30.8121 1.66466 30.3466 1.68166 29.8778H1.78166C1.7805 29.8314 1.77934 29.7847 1.77815 29.7372C1.7727 29.3609 1.8014 29.0666 1.88165 28.7085C1.90505 28.4052 1.91935 28.1018 1.93165 27.7971H2.03165V26.6903H2.13165C2.13353 26.6287 2.13353 26.6287 2.13544 26.566C2.14124 26.3811 2.14734 26.1962 2.15354 26.0106C2.15551 25.946 2.15747 25.8811 2.15949 25.8147C2.16159 25.7532 2.16368 25.6916 2.16584 25.6285C2.16859 25.5432 2.16859 25.5432 2.17139 25.4559C2.18164 25.3231 2.18164 25.3231 2.23189 25.258C2.23979 25.1421 2.24444 25.0263 2.24769 24.9097C2.25083 24.8042 2.25083 24.8042 2.25404 24.6968C2.25601 24.6226 2.25797 24.549 2.25999 24.4729C2.26215 24.3986 2.26431 24.3244 2.26654 24.2476C2.27184 24.0634 2.27694 23.8798 2.28189 23.6955H2.38189C2.38163 23.6486 2.38137 23.6018 2.3811 23.5536C2.38004 23.3361 2.3794 23.1194 2.37877 22.9026C2.37835 22.829 2.37793 22.7554 2.3775 22.6792C2.37653 22.2378 2.39035 21.8003 2.4191 21.3641C2.5316 19.5608 2.5221 17.7248 2.41771 15.9214C2.36671 14.997 2.37231 14.079 2.38191 13.1545H2.28191C2.28003 13.0699 2.28003 13.0699 2.27811 12.9833C2.27336 12.7736 2.26841 12.5647 2.26331 12.355C2.26115 12.2645 2.25906 12.1734 2.25706 12.0829C2.25418 11.9527 2.25096 11.8225 2.24776 11.6923C2.24501 11.5744 2.24501 11.5744 2.24221 11.4546C2.24142 11.2704 2.24142 11.2704 2.18171 11.1363C2.17021 10.982 2.16116 10.827 2.15361 10.6727C2.14942 10.5894 2.14521 10.5061 2.14091 10.4201C2.13788 10.3559 2.13486 10.2919 2.13171 10.2255H1.53171V10.3557C1.34321 10.3613 1.15471 10.3648 0.966712 10.3679C0.913212 10.3696 0.859712 10.3712 0.804212 10.3729C0.752712 10.3735 0.701212 10.3741 0.648212 10.3748C0.577212 10.3763 0.577211 10.3763 0.504711 10.3779C0.382211 10.3557 0.382212 10.3557 0.293212 10.2666C-0.0702882 9.6383 0.0552114 8.47619 0.116211 7.74052C0.132011 7.62398 0.132012 7.62398 0.182212 7.49377C0.193512 7.3831 0.202661 7.27177 0.210311 7.16044C0.216611 7.07125 0.216611 7.07125 0.223011 6.98075C0.226041 6.93524 0.229062 6.88961 0.232212 6.84273H0.332212L0.325962 6.63505C0.331962 6.39612 0.362111 6.27633 0.431961 6.06148C0.451011 5.90979 0.468211 5.7581 0.481961 5.60575H0.581961V5.15002H0.681961L0.731961 4.69429H0.831962V4.36877H0.931961L0.950711 4.2262C0.981461 4.04586 1.02621 3.887 1.08171 3.71773H1.18171V3.58752H1.28171L1.33171 3.32711H1.43171V3.13179H1.53171V3.00159C1.60071 2.89612 1.60071 2.89612 1.68171 2.80627H1.78171V2.67606H1.93171V2.54586H2.03171V2.41565L2.28171 2.35054V2.22034C2.50071 2.02502 2.50071 2.02502 2.63171 2.02502V1.89481H2.98171V1.76461C3.09721 1.74312 3.21271 1.72164 3.33171 1.6995V1.56929H4.08171V1.43909C4.11451 1.43745 4.14721 1.43582 4.18121 1.43414C4.32921 1.42659 4.47721 1.41858 4.62571 1.41058C4.67721 1.40802 4.72921 1.40546 4.78221 1.40283C4.85621 1.39874 4.85621 1.39874 4.93171 1.39456C4.97726 1.39217 5.02271 1.38979 5.06971 1.38733C5.18371 1.38271 5.18371 1.38271 5.28221 1.30856C5.76371 1.21871 6.24721 1.23759 6.73221 1.24345V1.11325C6.77561 1.11161 6.81921 1.10998 6.86371 1.1083C7.02471 1.10211 7.18521 1.09567 7.34621 1.08903C7.41571 1.08621 7.48571 1.0835 7.55521 1.0809C7.65521 1.07714 7.75521 1.07295 7.85521 1.06879C7.91521 1.0664 7.97571 1.06401 8.03771 1.06156C8.17921 1.06052 8.17921 1.06052 8.28221 0.982784C8.38221 0.973474 8.48271 0.96807 8.58271 0.964489C8.64421 0.9621 8.70521 0.959704 8.76871 0.957263C8.86671 0.953799 8.86671 0.953799 8.96671 0.950297C9.58171 0.926859 9.58171 0.926859 10.1917 0.885193C10.2472 0.880492 10.3022 0.875818 10.3597 0.870935C10.4827 0.861885 10.4827 0.861885 10.5827 0.787601C10.6642 0.781722 10.7462 0.779919 10.8282 0.78018C10.8792 0.780184 10.9302 0.780189 10.9827 0.780194C11.0657 0.780698 11.0657 0.780698 11.1502 0.78121C11.2067 0.781302 11.2632 0.781394 11.3212 0.781489C11.5022 0.781855 11.6827 0.782674 11.8662 0.783501C11.9887 0.783827 12.1112 0.784125 12.2332 0.784393C12.5337 0.785109 12.8332 0.786203 13.1332 0.78757V0.657362C13.6682 0.648703 14.1982 0.640239 14.7332 0.631906C14.9807 0.628032 15.2287 0.624094 15.4782 0.620057C17.2032 0.592062 18.9282 0.58438 20.6282 0.62242L20.6501 0.615961Z" fill="white"/>
<path d="M33.35 0.325439H33.7V0.455648C33.741 0.454137 33.782 0.452627 33.824 0.451071C33.905 0.449307 33.905 0.449307 33.9875 0.44751C34.041 0.445999 34.094 0.444489 34.149 0.442933C34.299 0.455563 34.3715 0.49098 34.5 0.586162C34.5995 0.611097 34.6995 0.633428 34.8 0.651266V0.781475L34.9155 0.769235C35.05 0.781475 35.05 0.781475 35.1405 0.870798C35.2 0.976266 35.2 0.976266 35.2 1.10647H35.3V1.23668C35.3495 1.25817 35.399 1.27965 35.45 1.30179V1.432H35.55V1.5622H35.65L35.7 1.88772H35.8V2.14814H35.9V2.53877H36C36.1315 2.96064 36.1695 3.32002 36.15 3.77575H36.25C36.253 3.8361 36.256 3.89619 36.2592 3.95869C36.2634 4.03681 36.2676 4.11494 36.2719 4.19502C36.2759 4.27249 36.28 4.35062 36.2842 4.43069C36.2838 4.61494 36.2838 4.61494 36.3502 4.6872C36.4157 5.22887 36.4057 5.77444 36.4032 6.32132C36.4029 6.41572 36.4027 6.51012 36.4025 6.60517C36.402 6.83499 36.4011 7.06416 36.4001 7.29528H36.5001V8.59736H36.4001C36.4003 8.65641 36.4006 8.7152 36.4009 8.7764C36.4017 8.99905 36.4023 9.22171 36.4028 9.44697C36.4031 9.54267 36.4034 9.63837 36.4038 9.73408C36.4105 11.2315 36.4105 11.2315 36.2998 11.6612C36.2926 11.753 36.2875 11.8448 36.284 11.9366C36.2819 11.9888 36.2798 12.0407 36.2777 12.0948C36.2757 12.149 36.2738 12.2035 36.2717 12.2595C36.2685 12.3422 36.2685 12.3422 36.2652 12.4261C36.2599 12.5616 36.2548 12.6976 36.2498 12.833H36.1498C36.151 12.917 36.1522 13.001 36.1534 13.0876C36.1543 13.1996 36.1552 13.3109 36.1561 13.4229C36.1569 13.4781 36.1578 13.5336 36.1586 13.5902C36.1606 13.9307 36.1223 14.197 36.0496 14.5277C36.0307 14.7757 36.0243 15.0231 36.0184 15.2699C36.0155 15.3695 36.0155 15.3695 36.0125 15.4704C36.0078 15.6325 36.0036 15.7953 35.9996 15.9574H35.8996V17.3897H35.7996L35.8059 17.6423C35.8061 17.8623 35.7905 18.0583 35.7529 18.2731C35.6744 18.7321 35.6669 19.1976 35.6499 19.6664H35.5499C35.551 19.7438 35.5522 19.822 35.5534 19.902C35.5556 20.1156 35.5569 20.3291 35.5563 20.5427C35.5562 20.592 35.5561 20.6416 35.556 20.6924C35.5477 20.889 35.5168 21.072 35.4755 21.2614C35.4105 21.6755 35.414 22.1078 35.4 22.531H35.3V23.5726H35.2C35.1988 23.6117 35.1975 23.6507 35.1962 23.6911C35.1904 23.8675 35.1843 24.0433 35.1781 24.2198C35.1762 24.2813 35.1742 24.3428 35.1722 24.4066C35.1701 24.4651 35.168 24.5238 35.1658 24.5837C35.1631 24.6651 35.1631 24.6651 35.1603 24.7478C35.15 24.8747 35.15 24.8747 35.0998 24.9398C35.0919 25.0602 35.0872 25.1813 35.084 25.3024C35.0819 25.3754 35.0798 25.4489 35.0776 25.5244C35.0757 25.6013 35.0737 25.6787 35.0717 25.7582C35.0685 25.8741 35.0685 25.8741 35.0651 25.9925C35.0598 26.1846 35.0547 26.376 35.0498 26.5681H34.9498C34.951 26.6436 34.9521 26.7191 34.9533 26.7972C34.9588 27.3148 34.9533 27.7998 34.8753 28.3076C34.8198 28.764 34.8148 29.2321 34.7998 29.6879H34.6998V31.7061H34.5998V35.8076H34.6998V36.9144H34.7998L34.8186 37.1547C34.8393 37.3767 34.8856 37.5537 34.9496 37.7608C34.9558 37.9437 34.9558 37.9437 34.9496 38.0863H35.0496L35.1996 38.8675H35.2996V39.128H35.3996V39.3233H35.5496V39.5186H35.6496V39.6488H35.7496C35.8306 39.7386 35.8306 39.7386 35.8996 39.8441V39.9743H36.0496V40.1045L36.2496 40.1696V40.2998H36.3996V40.43H36.5996V40.5603C36.6986 40.5817 36.7976 40.6032 36.8996 40.6254V40.7556H37.2496V40.8858L37.4121 40.8776C37.5996 40.8858 37.5996 40.8858 37.6901 40.9486C37.8391 41.0397 37.9731 41.0436 38.1371 41.0567C38.1956 41.0615 38.2541 41.0664 38.3146 41.0714C38.3592 41.0746 38.4036 41.0778 38.4496 41.0811V41.2113C38.4824 41.211 38.5151 41.2106 38.5491 41.2103C38.6971 41.2089 38.8451 41.2081 38.9936 41.2072C39.0451 41.2067 39.0971 41.2061 39.1501 41.2056C39.1994 41.2054 39.2486 41.2051 39.2996 41.2049C39.3451 41.2046 39.3906 41.2042 39.4376 41.2039C39.5501 41.2113 39.5501 41.2113 39.6501 41.2762C39.7266 41.2823 39.8036 41.2845 39.8801 41.2846C39.9278 41.2848 39.9756 41.285 40.0246 41.2852C40.0761 41.2851 40.1281 41.2849 40.1811 41.2848C40.2341 41.2848 40.2871 41.2849 40.3416 41.285C40.4536 41.285 40.5656 41.2849 40.6776 41.2846C40.8496 41.2843 41.0211 41.2846 41.1926 41.285C41.3011 41.285 41.4096 41.2849 41.5186 41.2848C41.5701 41.2849 41.6221 41.285 41.6751 41.2852C41.7466 41.2849 41.7466 41.2849 41.8196 41.2846C41.8617 41.2845 41.9036 41.2845 41.9471 41.2844C42.0531 41.2846 42.0531 41.2846 42.1496 41.2108C42.2401 41.2053 42.3311 41.2039 42.4221 41.2045C42.4761 41.2047 42.5296 41.2049 42.5851 41.2051C42.6416 41.2057 42.6981 41.2062 42.7561 41.2068C42.8131 41.2071 42.8696 41.2074 42.9281 41.2077C43.0686 41.2084 43.2091 41.2095 43.3496 41.2108V41.0806C43.4051 41.0774 43.4606 41.0742 43.5181 41.071C43.8816 41.0479 44.2281 41.0196 44.5831 40.9121C44.7871 40.8647 44.9916 40.8752 45.1981 40.8854V40.7552H45.7481V40.625L46.2481 40.5599V40.4297H46.7481V40.2995H47.0981V40.1693L47.4981 40.1042V39.974H47.8481V39.8438C47.9636 39.8223 48.0791 39.8008 48.1981 39.7787V39.6485H48.5481V39.5183C48.6046 39.4981 48.6616 39.478 48.7201 39.4572C48.8876 39.4121 48.8876 39.4121 48.9481 39.3231C49.0481 39.3204 49.1481 39.3203 49.2481 39.3231V39.1929C49.3281 39.16 49.4086 39.1278 49.4886 39.0952C49.5556 39.068 49.5556 39.068 49.6241 39.0403C49.7481 38.9976 49.7481 38.9976 49.8981 38.9976V38.8673H50.2481V38.7371H51.0981V38.8673H51.1981V38.9976C51.2476 39.019 51.2971 39.0405 51.3481 39.0627V39.1929H51.4481V39.3231H51.5481V39.5184H51.6481L51.6981 39.8439H51.7981C51.8126 39.924 51.8126 39.924 51.8274 40.0054C51.8404 40.0757 51.8534 40.146 51.8668 40.2183C51.886 40.3224 51.886 40.3224 51.9055 40.4285C51.9395 40.6167 51.9395 40.6167 52 40.7397C52.066 40.9396 52.061 41.1095 52.0615 41.3263C52.0616 41.4123 52.0617 41.4982 52.0619 41.5861C52.0616 41.6306 52.0614 41.6753 52.0612 41.7209C52.0607 41.8563 52.0612 41.9917 52.0619 42.1278C52.0617 42.2567 52.0617 42.2567 52.0615 42.3882C52.0613 42.467 52.0612 42.5451 52.0611 42.6258C52.0484 42.8348 52.0146 42.9748 51.9481 43.1636C51.9195 43.3003 51.8926 43.437 51.8671 43.5744C51.8476 43.6785 51.8476 43.6785 51.8277 43.7853C51.818 43.8379 51.8083 43.8908 51.7984 43.9448H51.6984L51.6484 44.2703H51.5484V44.5308H51.4484V44.7261H51.3484L51.2984 45.0516H51.1984V45.1818H51.0984L51.0484 45.3771H50.9484V45.5073H50.8484V45.6375C50.7794 45.743 50.7794 45.743 50.6984 45.8328H50.5984V45.963H50.4484V46.0933L50.2484 46.1584V46.2886H50.0984V46.4188H49.9984V46.549L49.7484 46.6141V46.7443L49.3984 46.8745V47.0047H49.1484V47.1349L48.8984 47.2V47.3302H48.6484V47.4604C48.2839 47.6838 48.2839 47.6838 48.0484 47.6558V47.786H47.7984V47.9162C47.6829 47.9377 47.5674 47.9591 47.4484 47.9813V48.1115H47.0984V48.2417C46.9499 48.2632 46.8014 48.2847 46.6484 48.3068V48.437H46.2484V48.5672C46.1369 48.6002 46.0254 48.6323 45.9139 48.6649C45.8519 48.683 45.7899 48.7011 45.7259 48.7198C45.5774 48.7556 45.4489 48.7715 45.2984 48.7625V48.8927H44.6984V49.0229C44.6484 49.0316 44.5984 49.0403 44.5469 49.0491C44.4824 49.0606 44.4179 49.0721 44.3514 49.0839C44.2869 49.0953 44.2224 49.1066 44.1564 49.1183C44.0059 49.1311 44.0059 49.1311 43.9484 49.2185C43.8309 49.2232 43.7129 49.224 43.5954 49.2226C43.5309 49.222 43.4664 49.2214 43.3999 49.2208C43.3249 49.2197 43.3249 49.2197 43.2484 49.2185V49.3487C43.1939 49.3519 43.1394 49.3551 43.0834 49.3584C43.0094 49.3633 42.9349 49.3682 42.8609 49.3731C42.8254 49.3751 42.7899 49.3772 42.7534 49.3792C42.5379 49.3942 42.3319 49.4279 42.1184 49.4795C41.8144 49.5466 41.5234 49.5609 41.2134 49.5563C41.1609 49.5561 41.1084 49.556 41.0544 49.5558C40.8894 49.555 40.7244 49.5534 40.5594 49.5518C40.4464 49.5511 40.3334 49.5505 40.2209 49.55C39.9464 49.5486 39.6709 49.5464 39.3959 49.5436V49.6738H39.2959V49.5436C39.265 49.5439 39.2344 49.5442 39.2024 49.5445C38.8794 49.5474 38.5574 49.5493 38.2324 49.5508C38.1119 49.5514 37.9919 49.5523 37.8714 49.5534C37.6979 49.555 37.5244 49.5558 37.3514 49.5563C37.2984 49.557 37.2449 49.5577 37.1904 49.5584C36.9009 49.5584 36.6354 49.5293 36.3504 49.4438C36.1874 49.3974 36.0279 49.3852 35.8614 49.3722C35.8009 49.3673 35.7404 49.3624 35.6784 49.3574C35.6336 49.3542 35.5889 49.351 35.5429 49.3478V49.2175H34.9429V49.0873L34.2429 49.0222V48.892H33.8429V48.7618L33.6619 48.7374C33.4794 48.7082 33.3159 48.6508 33.1419 48.5668V48.4366C33.0629 48.4245 33.0629 48.4245 32.9824 48.4122C32.8189 48.3773 32.6914 48.3302 32.5419 48.2416V48.1114H32.2919V47.9812L32.0419 47.9161V47.7859H31.8919V47.6557H31.6919V47.4604H31.5419V47.3302H31.4419V47.2L31.3229 47.1389C31.1919 47.0699 31.1919 47.0699 31.0919 47.0048V46.8095H30.9919V46.6793H30.8419V46.5491H30.7419L30.6919 46.3537L30.5919 46.2886V46.1584H30.4919V45.9631H30.3919L30.3419 45.7027H30.2419V45.3772H30.1419V45.1819H29.9919V44.8563H29.8919C29.8204 44.5523 29.7719 44.2619 29.7419 43.9449H29.6419V43.359H29.5419C29.4928 43.0953 29.4879 42.8485 29.4919 42.5777H29.3919V38.5412H29.4919C29.4913 38.4971 29.4907 38.4527 29.4901 38.4078C29.4821 37.3271 29.4821 37.3271 29.5921 37.0471C29.6038 36.8596 29.6131 36.6734 29.6202 36.4859C29.6224 36.4337 29.6245 36.3817 29.6268 36.3277C29.6321 36.1988 29.6371 36.0699 29.6421 35.9403H29.7421C29.741 35.8907 29.7398 35.8414 29.7386 35.7899C29.7336 35.4195 29.7449 35.0933 29.8166 34.7353C29.8696 34.4052 29.8771 34.0647 29.8921 33.7327H29.9921V32.8212H30.0921L30.1421 31.5842H30.2421V30.6077H30.3421C30.3409 30.5479 30.3398 30.4879 30.3386 30.4267C30.3377 30.3466 30.3368 30.2672 30.3358 30.1845C30.3347 30.1057 30.3335 30.0276 30.3323 29.9462C30.3411 29.7216 30.3726 29.5308 30.4178 29.3147C30.4626 29.0543 30.4656 28.7899 30.4733 28.5269C30.4753 28.4703 30.4772 28.4136 30.4792 28.355C30.4838 28.217 30.488 28.079 30.4921 27.941H30.5921V26.5738H30.6921C30.694 26.495 30.694 26.495 30.6959 26.4143C30.7017 26.1773 30.7078 25.9397 30.714 25.7047C30.7159 25.622 30.7179 25.5393 30.7199 25.454C30.7231 25.3355 30.7231 25.3355 30.7263 25.2151C30.7281 25.1422 30.7299 25.0692 30.7318 24.9937C30.7421 24.8173 30.7421 24.8173 30.7923 24.6871C30.8001 24.5302 30.8052 24.3752 30.8081 24.2183C30.8092 24.1723 30.8102 24.1265 30.8113 24.079C30.8145 23.9319 30.8175 23.7847 30.8204 23.637C30.8226 23.5373 30.8248 23.4371 30.827 23.3375C30.8323 23.0927 30.8374 22.8479 30.8423 22.6018H30.9423V15.1148H30.8423C30.8411 15.0603 30.8398 15.0054 30.8385 14.9495C30.8338 14.7476 30.8288 14.5452 30.8237 14.3433C30.8205 14.2125 30.8175 14.0823 30.8145 13.9514C30.8124 13.8694 30.8103 13.788 30.8082 13.7034C30.8054 13.5901 30.8054 13.5901 30.8026 13.4742C30.8015 13.2952 30.8015 13.2952 30.7421 13.1617C30.7345 13.0582 30.7297 12.954 30.7263 12.8498C30.7242 12.7886 30.7221 12.7274 30.72 12.6643C30.718 12.6002 30.7161 12.536 30.714 12.4703C30.7119 12.4056 30.7097 12.3407 30.7075 12.2743C30.7022 12.1142 30.6971 11.9547 30.6921 11.7945H30.5921V10.8179H30.4921C30.4897 10.7794 30.4872 10.7411 30.4847 10.7014C30.4636 10.4104 30.4287 10.1773 30.3422 9.90713C30.336 9.72419 30.336 9.72419 30.3422 9.58161H30.2422L30.2235 9.38239C30.1932 9.13369 30.1485 8.91039 30.0925 8.67276H29.9925V8.34724H29.8925C29.834 8.08812 29.7795 7.83161 29.7425 7.56599H29.6425L29.5735 7.34203C29.5135 7.107 29.5135 7.107 29.3925 7.04515V6.71963H29.2925C29.2305 6.52627 29.1775 6.33877 29.1425 6.1337H29.0425V5.80817H28.9425L28.8925 5.48265H28.7925V5.15713H28.6925L28.6425 4.7014H28.5425V4.18057H28.6425L28.7925 3.59463H28.8925L28.9425 3.39932H29.0425V3.20401H29.1425V3.0087H29.2925V2.87849H29.3925V2.68317H29.5425V2.55297H29.6425V2.42276L29.8925 2.35765V2.22745H29.9925V2.03213H30.1425V1.90192H30.3425V1.77172H30.4925V1.64151L30.7425 1.5764V1.4462H30.9425V1.31599L31.1925 1.25088V1.12067H31.4425V0.990466C31.6155 0.95824 31.6155 0.95824 31.7925 0.925362V0.795154H32.0425V0.664945C32.095 0.65199 32.095 0.65199 32.1485 0.638773C32.217 0.621521 32.217 0.621521 32.2865 0.603943C32.3317 0.592615 32.377 0.581286 32.4235 0.569633C32.5425 0.541312 32.5425 0.541312 32.6425 0.469372C32.761 0.464737 32.88 0.463897 32.9985 0.465303C33.0625 0.465891 33.1265 0.466475 33.1925 0.467081C33.2665 0.468214 33.2665 0.468214 33.342 0.469372V0.339164L33.35 0.325439Z" fill="white"/>
</g>
<defs>
<clipPath id="clip0_724_2302">
<rect width="80" height="50" fill="white"/>
</clipPath>
</defs>
</svg>
